<svg width="130" height="130" viewBox="0 0 130 130" fill="none" xmlns="http://www.w3.org/2000/svg">
<g clip-path="url(#clip0_101_1259)">
<path d="M65 21.125C40.7633 21.125 21.125 40.7633 21.125 65C21.125 89.2367 40.7633 108.875 65 108.875C89.2367 108.875 108.875 89.2367 108.875 65C108.875 40.7633 89.2367 21.125 65 21.125Z" fill="url(#paint0_linear_101_1259)"/>
<g opacity="0.7" filter="url(#filter0_f_101_1259)">
<path d="M53 54C35.3231 54 21 68.3231 21 86C21 103.677 35.3231 118 53 118C70.6769 118 85 103.677 85 86C85 68.3231 70.6769 54 53 54Z" fill="url(#paint1_linear_101_1259)"/>
</g>
<path d="M43 62.5L58.5 77.5L87 50" stroke="white" stroke-width="9"/>
</g>
<defs>
<filter id="filter0_f_101_1259" x="-3" y="30" width="112" height="112" filterUnits="userSpaceOnUse" color-interpolation-filters="sRGB">
<feFlood flood-opacity="0" result="BackgroundImageFix"/>
<feBlend mode="normal" in="SourceGraphic" in2="BackgroundImageFix" result="shape"/>
<feGaussianBlur stdDeviation="12" result="effect1_foregroundBlur_101_1259"/>
</filter>
<linearGradient id="paint0_linear_101_1259" x1="21.125" y1="61.5158" x2="108.893" y2="61.5158" gradientUnits="userSpaceOnUse">
<stop stop-color="#E22028"/>
<stop offset="1" stop-color="#A1287D"/>
</linearGradient>
<linearGradient id="paint1_linear_101_1259" x1="21" y1="83.4588" x2="85.0134" y2="83.4588" gradientUnits="userSpaceOnUse">
<stop stop-color="#E22028"/>
<stop offset="1" stop-color="#A1287D"/>
</linearGradient>
<clipPath id="clip0_101_1259">
<rect width="130" height="130" fill="white"/>
</clipPath>
</defs>
</svg>
