<svg width="20" height="20" viewBox="0 0 20 20" fill="none" xmlns="http://www.w3.org/2000/svg">
<g clip-path="url(#clip0_1976_8861)">
<path d="M10.0002 3.33337C8.68162 3.33337 7.39269 3.72437 6.29636 4.45691C5.20004 5.18945 4.34555 6.23064 3.84097 7.44882C3.33638 8.66699 3.20436 10.0074 3.4616 11.3006C3.71883 12.5939 4.35377 13.7817 5.28612 14.7141C6.21847 15.6464 7.40636 16.2814 8.69956 16.5386C9.99277 16.7958 11.3332 16.6638 12.5514 16.1592C13.7696 15.6547 14.8108 14.8002 15.5433 13.7038C16.2758 12.6075 16.6668 11.3186 16.6668 10C16.6668 8.23193 15.9645 6.53624 14.7142 5.286C13.464 4.03575 11.7683 3.33337 10.0002 3.33337ZM10.0002 15.5556C8.90138 15.5556 7.82727 15.2298 6.91366 14.6193C6.00006 14.0089 5.28799 13.1412 4.8675 12.1261C4.44701 11.1109 4.337 9.99388 4.55136 8.91621C4.76572 7.83853 5.29484 6.84863 6.07179 6.07167C6.84875 5.29471 7.83866 4.7656 8.91633 4.55123C9.994 4.33687 11.111 4.44689 12.1262 4.86738C13.1413 5.28786 14.009 5.99993 14.6194 6.91354C15.2299 7.82715 15.5557 8.90126 15.5557 10C15.5557 10.7296 15.412 11.452 15.1328 12.1261C14.8536 12.8001 14.4444 13.4125 13.9285 13.9284C13.4127 14.4443 12.8002 14.8535 12.1262 15.1327C11.4522 15.4119 10.7297 15.5556 10.0002 15.5556Z" fill="#EC1E32"/>
<path d="M10.0001 11.15C9.80851 11.15 9.62481 11.0739 9.48937 10.9384C9.35392 10.803 9.27783 10.6193 9.27783 10.4277V7.09441C9.27783 6.90287 9.35392 6.71917 9.48937 6.58373C9.62481 6.44828 9.80851 6.37219 10.0001 6.37219C10.1916 6.37219 10.3753 6.44828 10.5107 6.58373C10.6462 6.71917 10.7223 6.90287 10.7223 7.09441V10.4277C10.7223 10.6193 10.6462 10.803 10.5107 10.9384C10.3753 11.0739 10.1916 11.15 10.0001 11.15Z" fill="#EC1E32"/>
<path d="M9.97201 13.6222C10.4322 13.6222 10.8053 13.2491 10.8053 12.7889C10.8053 12.3287 10.4322 11.9556 9.97201 11.9556C9.51177 11.9556 9.13867 12.3287 9.13867 12.7889C9.13867 13.2491 9.51177 13.6222 9.97201 13.6222Z" fill="#EC1E32"/>
</g>
<defs>
<clipPath id="clip0_1976_8861">
<rect width="20" height="20" fill="white"/>
</clipPath>
</defs>
</svg>
